<svg id="图层_1" data-name="图层 1" xmlns="http://www.w3.org/2000/svg" viewBox="0 0 365.59 439.8"><defs><style>.cls-1{fill:#fff;}</style></defs><title>检测</title><path class="cls-1" d="M678,509.69A182.72,182.72,0,0,0,533,295.76a184.24,184.24,0,0,0-34.64-3.31c-87.37,0-162.78,62.37-179.3,148.3A182.75,182.75,0,0,0,464,654.68a182,182,0,0,0,114.5-15.16,26.69,26.69,0,0,0,2.29,4.18l52.11,76.92A26.42,26.42,0,1,0,676.69,691L624.6,614.1a26.48,26.48,0,0,0-3-3.75A180.67,180.67,0,0,0,678,509.69Zm-70-47.54-20.23-15.75a18.41,18.41,0,0,0-11.21-5,17.72,17.72,0,0,0-2.54-.11H574A20.3,20.3,0,0,0,563,444.34a12.9,12.9,0,0,0-6,8.52L539.07,495l-29-90.05c-2-5.82-8.79-9.89-16.59-9.89h-.59c-7,0-13.16,3.17-15.81,8.08l-.09.16L438.8,492.89l-34.63-26.77a19.71,19.71,0,0,0-12-3.85h-22.9q.59-5.78,1.69-11.56a130,130,0,0,1,256.9,11.45ZM384.86,488.95l49,37.9A20.12,20.12,0,0,0,446,530.66h.5c6.89,0,13.07-3.17,15.73-8.07l.09-.17,28.58-67L520.08,546c1.94,5.82,8.73,9.89,16.53,9.89h.3c8.25,0,15.2-4.49,16.74-10.75l27.93-65.68,6.79,5.29a17.27,17.27,0,0,0,4.84,2.62,21.4,21.4,0,0,0,7.93,1.49h26.59q-.59,5.44-1.62,10.88a130,130,0,0,1-256.83-10.78Zm0,0" transform="translate(-315.72 -292.45)"/></svg>